<?xml version="1.0" encoding="UTF-8"?>
<svg width="96" height="96" viewBox="0 0 96 96" fill="none" xmlns="http://www.w3.org/2000/svg">
  <defs>
    <linearGradient id="clipGrad" x1="48" y1="8" x2="48" y2="24" gradientUnits="userSpaceOnUse">
      <stop stop-color="#5B6BC8"/>
      <stop offset="1" stop-color="#3F51B5"/>
    </linearGradient>
  </defs>
  <!-- Background transparent -->
  <!-- Clipboard body -->
  <rect x="16" y="20" width="56" height="68" rx="8" fill="#C9D2E3" stroke="#2E3A59" stroke-width="4"/>

  <!-- Clipboard top clip -->
  <path d="M34 12h12a4 4 0 0 1 4 4v0h12a6 6 0 0 1 6 6v4H28v-4a6 6 0 0 1 6-6h0v0z" fill="url(#clipGrad)" stroke="#2E3A59" stroke-width="4" stroke-linejoin="round"/>
  <rect x="38" y="10" width="20" height="12" rx="6" fill="#FFFFFF" stroke="#2E3A59" stroke-width="4"/>

  <!-- Page overlay -->
  <g transform="translate(30,32)">
    <path d="M0 0h30l10 10v34a6 6 0 0 1-6 6H6a6 6 0 0 1-6-6V0z" fill="#FFFFFF" stroke="#2E3A59" stroke-width="4"/>
    <path d="M30 0v10h10" fill="none" stroke="#2E3A59" stroke-width="4"/>
    <!-- Lines on page -->
    <line x1="8" y1="18" x2="30" y2="18" stroke="#8AA0D6" stroke-width="3" stroke-linecap="round"/>
    <line x1="8" y1="26" x2="30" y2="26" stroke="#8AA0D6" stroke-width="3" stroke-linecap="round"/>
    <line x1="8" y1="34" x2="24" y2="34" stroke="#8AA0D6" stroke-width="3" stroke-linecap="round"/>
  </g>
</svg>
